<svg width="147" height="138" viewBox="0 0 147 138" fill="none" xmlns="http://www.w3.org/2000/svg">
<path d="M38.2245 90.6398C46.8858 85.9342 55.1587 81.4406 63.4315 76.947C79.0785 68.4472 94.7215 59.9399 110.384 51.4661C111.412 50.9082 111.856 50.3056 111.836 49.145C111.766 44.4356 111.766 39.7226 111.84 35.0133C111.86 33.8527 111.401 33.2352 110.38 32.6847C106.059 30.3635 101.754 28.02 97.504 25.5872C96.2678 24.8767 95.3573 24.9511 94.1328 25.6207C78.2779 34.2731 62.3876 42.8733 46.5052 51.4847C46.0068 51.7526 45.4848 51.9795 44.6332 52.3887C44.6332 49.0185 44.8647 45.8715 44.5665 42.7766C44.2839 39.8565 45.3788 38.3388 48.0985 36.8993C63.2706 28.8681 78.3211 20.625 93.3754 12.393C94.6823 11.6788 95.5928 11.716 96.8761 12.4339C105.098 17.0204 113.367 21.5326 121.655 26.0076C122.923 26.692 123.492 27.4211 123.476 28.8942C123.39 38.004 123.41 47.1177 123.461 56.2313C123.468 57.496 123.084 58.2288 121.887 58.8686C113.524 63.3473 105.204 67.8967 96.8721 72.4311C96.205 72.7957 95.5574 73.19 94.6352 73.7219C97.504 75.5632 100.106 77.3153 102.814 78.8925C103.265 79.1566 104.289 78.833 104.894 78.5131C110.423 75.5744 115.914 72.5762 121.42 69.6004C121.965 69.3065 122.542 69.061 123.382 68.663C123.382 73.1714 123.41 77.4194 123.339 81.6712C123.331 82.0804 122.817 82.6309 122.389 82.869C116.189 86.3099 109.976 89.7395 103.705 93.0725C103.187 93.3478 102.096 93.1209 101.523 92.7638C95.6242 89.0886 89.7413 85.3911 83.9449 81.5745C82.536 80.6445 81.5509 80.7041 80.1224 81.4927C70.8567 86.5963 61.5203 91.5809 52.2428 96.6659C51.14 97.2685 50.3316 97.3355 49.2209 96.6956C45.7163 94.6758 42.1333 92.7787 38.2245 90.6398Z" fill="#5D66EB"/>
<path d="M85.2164 6.18833C84.0312 6.8765 83.2267 7.36752 82.3947 7.82134C66.9832 16.2021 51.5599 24.5643 36.1759 32.9972C35.4812 33.3766 34.7199 34.3512 34.712 35.0505C34.6218 45.8344 34.6493 56.6182 34.6571 67.402C34.6571 67.5805 34.7277 67.7591 34.8298 68.2389C35.5754 67.9079 36.2583 67.6586 36.8823 67.3164C55.9357 56.979 74.9931 46.6527 94.0033 36.2483C95.5378 35.4076 96.566 35.6866 98.073 36.2744C101.495 37.5986 102.676 39.7078 102.26 43.1486C102.068 44.7482 101.66 45.6521 100.169 46.4593C76.7826 59.0956 53.424 71.7802 30.0811 84.4909C28.9587 85.1047 28.1856 84.9075 27.0514 84.4946C23.7666 83.2894 22.9621 81.2323 23.0013 77.9477C23.2093 61.7143 23.1191 45.4772 23.0563 29.2402C23.0524 27.6927 23.4919 26.8037 24.9518 26.0113C40.4889 17.5785 55.9907 9.09352 71.4689 0.567653C72.7522 -0.139117 73.6941 -0.228393 74.997 0.541614C78.2072 2.43873 81.5273 4.16473 85.2164 6.18833Z" fill="#5D66EB"/>
<path d="M0.528 124.368C0.528 127.728 2.864 130.08 6.176 130.08C8.848 130.08 10.864 128.592 11.504 126.16H8.496C8.032 127.12 7.184 127.6 6.144 127.6C4.464 127.6 3.312 126.352 3.312 124.368C3.312 122.384 4.464 121.136 6.144 121.136C7.184 121.136 8.032 121.616 8.496 122.576H11.504C10.864 120.144 8.848 118.64 6.176 118.64C2.864 118.64 0.528 121.008 0.528 124.368ZM27.4355 124.352C27.4355 120.976 24.8915 118.608 21.6915 118.608C18.5075 118.608 15.9155 120.976 15.9155 124.352C15.9155 127.728 18.5075 130.112 21.6915 130.112C24.8755 130.112 27.4355 127.728 27.4355 124.352ZM18.7155 124.352C18.7155 122.352 19.8675 121.088 21.6915 121.088C23.4835 121.088 24.6515 122.352 24.6515 124.352C24.6515 126.32 23.4835 127.616 21.6915 127.616C19.8675 127.616 18.7155 126.32 18.7155 124.352ZM39.4696 118.768V125.728L34.8936 118.768H32.1576V130H34.8936V123.072L39.4696 130H42.2056V118.768H39.4696ZM46.7809 120.96H49.7569V130H52.4929V120.96H55.4689V118.768H46.7809V120.96ZM65.978 122.416C65.978 123.296 65.498 123.824 64.474 123.824H62.778V121.04H64.474C65.498 121.04 65.978 121.584 65.978 122.416ZM60.042 118.768V130H62.778V125.76H63.434L65.77 130H68.858L66.266 125.552C67.994 125.04 68.762 123.712 68.762 122.304C68.762 120.352 67.386 118.768 64.634 118.768H60.042ZM84.7355 124.352C84.7355 120.976 82.1915 118.608 78.9915 118.608C75.8075 118.608 73.2155 120.976 73.2155 124.352C73.2155 127.728 75.8075 130.112 78.9915 130.112C82.1755 130.112 84.7355 127.728 84.7355 124.352ZM76.0155 124.352C76.0155 122.352 77.1675 121.088 78.9915 121.088C80.7835 121.088 81.9515 122.352 81.9515 124.352C81.9515 126.32 80.7835 127.616 78.9915 127.616C77.1675 127.616 76.0155 126.32 76.0155 124.352ZM89.4576 118.768V130H95.7776V127.888H92.1936V118.768H89.4576ZM112.809 122.416C112.809 123.296 112.329 123.824 111.305 123.824H109.609V121.04H111.305C112.329 121.04 112.809 121.584 112.809 122.416ZM106.873 118.768V130H109.609V125.76H110.265L112.601 130H115.689L113.097 125.552C114.825 125.04 115.593 123.712 115.593 122.304C115.593 120.352 114.217 118.768 111.465 118.768H106.873ZM127.391 118.768H120.511V130H127.391V127.808H123.247V125.344H126.911V123.232H123.247V120.96H127.391V118.768ZM137.615 118.64C134.255 118.64 131.903 121.008 131.903 124.368C131.903 127.728 134.271 130.08 137.631 130.08C140.591 130.08 142.463 128.144 143.039 126.208V123.664H137.087V125.68H140.559C140.143 126.944 139.199 127.664 137.839 127.664C135.871 127.664 134.687 126.448 134.687 124.368C134.687 122.416 135.855 121.168 137.615 121.168C138.639 121.168 139.407 121.568 139.823 122.32H142.847C142.255 120.016 140.303 118.64 137.615 118.64Z" fill="#5D66EB"/>
</svg>
